Coordinates
version=1
nRows=14
nColumns=46
inDegrees=yes

Units are S.I. units (second, meters, Newtons, ...)
Angles are in degrees.

endheader
time	pelvis_tilt	pelvis_list	pelvis_rotation	pelvis_tx	pelvis_ty	pelvis_tz	bb_angle	bb_tx	bb_ty	bb_tz	hip_flexion_r	hip_adduction_r	hip_rotation_r	knee_angle_r	knee_angle_r_beta	ankle_angle_r	subtalar_angle_r	mtp_angle_r	crank_angle_r	hip_flexion_l	hip_adduction_l	hip_rotation_l	knee_angle_l	knee_angle_l_beta	ankle_angle_l	subtalar_angle_l	mtp_angle_l	crank_angle_l	lumbar_extension	lumbar_bending	lumbar_rotation	arm_flex_r	arm_add_r	arm_rot_r	elbow_flex_r	pro_sup_r	wrist_flex_r	wrist_dev_r	arm_flex_l	arm_add_l	arm_rot_l	elbow_flex_l	pro_sup_l	wrist_flex_l	wrist_dev_l
      0.00000000	    -13.58560421	     -1.44055966	     -2.19846154	      0.05412664	      1.15805912	     -0.23894274	      0.00000000	      0.50000000	      0.00000000	      0.25000000	     82.90094417	     -0.50698226	      2.51828082	     86.87728612	      1.51629469	     -2.28953171	     -8.04218719	      0.00000000	      0.00000000	     46.40132248	     -7.86794740	     -2.30522213	     65.21036155	      1.13813552	      1.00359159	     -7.74901390	      0.00000000	      0.00000000	    -53.78458091	     -0.91031251	      1.19164728	     89.81000721	     -1.19254967	     41.59223764	     26.13287042	     20.48874683	      0.00000000	      0.00000000	     89.77850854	     -0.52189427	     33.27022273	     24.25896719	     20.30238004	      0.00000000	      0.00000000
      0.00500000	    -13.53649095	     -1.41170241	     -2.21872218	      0.05416720	      1.15816027	     -0.23890238	      0.00000000	      0.50000000	      0.00000000	      0.25000000	     82.84873469	     -0.49435798	      2.54475463	     86.88148455	      1.51636796	     -2.28155573	     -8.07862794	      0.00000000	      0.00000000	     46.32583872	     -7.86503254	     -2.36392445	     65.17980813	      1.13760226	      0.95858182	     -7.80101382	      0.00000000	      0.00000000	    -53.80907001	     -0.92781400	      1.10499204	     89.81457453	     -1.39450862	     43.28819588	     25.72860942	     22.23021541	      0.00000000	      0.00000000	     89.77818684	     -0.97641523	     34.81563128	     23.93431719	     22.20948871	      0.00000000	      0.00000000
      0.01000000	    -13.55822495	     -1.42511245	     -2.23688780	      0.05416974	      1.15811224	     -0.23882931	      0.00000000	      0.50000000	      0.00000000	      0.25000000	     82.87096657	     -0.46256702	      2.53112700	     86.87474833	      1.51625040	     -2.32583689	     -8.14641681	      0.00000000	      0.00000000	     46.35380737	     -7.90213123	     -2.36944678	     65.19944546	      1.13794499	      0.99579723	     -7.75984303	      0.00000000	      0.00000000	    -53.78296394	     -0.93337426	      1.12107997	     89.81443596	     -1.34963861	     43.14306868	     25.50174698	     23.18335663	      0.00000000	      0.00000000	     89.77801457	     -1.02681397	     34.96339804	     23.73243720	     23.25633083	      0.00000000	      0.00000000
      0.01500000	    -13.49360467	     -1.41345578	     -2.25494690	      0.05416973	      1.15813295	     -0.23880179	      0.00000000	      0.50000000	      0.00000000	      0.25000000	     82.80888022	     -0.44997001	      2.58404810	     86.90968253	      1.51686011	     -2.13376364	     -7.98520784	      0.00000000	      0.00000000	     46.28864641	     -7.89482968	     -2.38747282	     65.21233042	      1.13816988	      0.96249565	     -7.84154018	      0.00000000	      0.00000000	    -53.80465421	     -0.94887651	      1.22787986	     89.81355319	     -1.49050504	     43.22931706	     25.50446302	     23.23768869	      0.00000000	      0.00000000	     89.77715086	     -1.11318657	     32.94815669	     24.10020163	     23.32799957	      0.00000000	      0.00000000
      0.02000000	    -13.77690248	     -1.81024891	     -2.41134140	      0.05378820	      1.15674965	     -0.23673567	      0.00000000	      0.50000000	      0.00000000	      0.25000000	     83.16361026	     -0.02141918	      2.29261083	     86.88698258	      1.51646392	     -2.24304660	     -7.81282347	      0.00000000	      0.00000000	     46.72763937	     -7.98982933	     -1.83518030	     65.08141074	      1.13588490	      0.38229595	     -6.37221530	      0.00000000	      0.00000000	    -53.49306070	     -0.49343058	      1.38739500	     89.81574139	     -0.81334584	     43.12419528	     25.69323347	     23.09346526	      0.00000000	      0.00000000	     89.77888123	     -1.41488898	     32.56052463	     23.69476208	     23.10274194	      0.00000000	      0.00000000
      0.02500000	    -13.47989048	     -1.40355018	     -2.28686551	      0.05419046	      1.15827987	     -0.23877395	      0.00000000	      0.50000000	      0.00000000	      0.25000000	     82.78787067	     -0.42495338	      2.59271893	     86.90102106	      1.51670894	     -2.19239536	     -8.06732413	      0.00000000	      0.00000000	     46.25122824	     -7.93211839	     -2.45715932	     65.19344641	      1.13784029	      1.00591372	     -7.74114335	      0.00000000	      0.00000000	    -53.82335013	     -0.98338992	      1.33807017	     89.81364574	     -1.51511876	     42.95256382	     25.51937225	     22.89450300	      0.00000000	      0.00000000	     89.77730238	     -0.97228579	     32.80070095	     24.14145250	     23.10137444	      0.00000000	      0.00000000
      0.03000000	    -13.47983928	     -1.39627206	     -2.29099653	      0.05418894	      1.15831713	     -0.23879539	      0.00000000	      0.50000000	      0.00000000	      0.25000000	     82.78328742	     -0.43705896	      2.58801953	     86.89347045	      1.51657716	     -2.17992797	     -8.01331705	      0.00000000	      0.00000000	     46.24474575	     -7.91286028	     -2.44982234	     65.18804652	      1.13774604	      0.97716826	     -7.83575201	      0.00000000	      0.00000000	    -53.83162252	     -0.99940028	      1.33467805	     89.81317784	     -1.65284516	     43.20510600	     25.58804522	     23.59628427	      0.00000000	      0.00000000	     89.77780694	     -0.99880561	     32.89829440	     23.96539781	     23.90031984	      0.00000000	      0.00000000
      0.03500000	    -13.48743263	     -1.40042089	     -2.30371532	      0.05416175	      1.15829532	     -0.23875624	      0.00000000	      0.50000000	      0.00000000	      0.25000000	     82.79254905	     -0.41752199	      2.58320359	     86.88924324	      1.51650338	     -2.16019937	     -8.01338723	      0.00000000	      0.00000000	     46.25825584	     -7.92313019	     -2.44554957	     65.19566145	      1.13787895	      0.99721108	     -7.84307680	      0.00000000	      0.00000000	    -53.82954271	     -0.99922920	      1.36237744	     89.81073702	     -1.58147673	     42.93139676	     26.19510613	     20.45949464	      0.00000000	      0.00000000	     89.77964172	     -1.03671674	     33.33384364	     24.46244691	     21.42393153	      0.00000000	      0.00000000
      0.04000000	    -13.45506585	     -1.41663332	     -2.26119598	      0.05419229	      1.15837797	     -0.23881336	      0.00000000	      0.50000000	      0.00000000	      0.25000000	     82.74678115	     -0.45900895	      2.55629763	     86.89000922	      1.51651675	     -2.18686093	     -8.06822528	      0.00000000	      0.00000000	     46.22281334	     -7.90230160	     -2.40440723	     65.19319066	      1.13783583	      0.99879017	     -7.81834681	      0.00000000	      0.00000000	    -53.86402397	     -0.96543032	      1.30754950	     89.81351262	     -1.61931884	     43.16541731	     25.63474039	     23.45211157	      0.00000000	      0.00000000	     89.77758362	     -0.96279027	     32.52040467	     24.02350237	     23.85147433	      0.00000000	      0.00000000
      0.04500000	    -13.43712979	     -1.36896295	     -2.29854304	      0.05426720	      1.15843994	     -0.23877637	      0.00000000	      0.50000000	      0.00000000	      0.25000000	     82.72956782	     -0.44361719	      2.61947359	     86.89813277	      1.51665853	     -2.10759800	     -7.99506866	      0.00000000	      0.00000000	     46.16421148	     -7.89782469	     -2.47379729	     65.16132479	      1.13727966	      1.04095343	     -7.79345466	      0.00000000	      0.00000000	    -53.87639082	     -1.02575681	      1.37813023	     89.81303335	     -1.75652366	     43.24433280	     25.80606884	     22.92355908	      0.00000000	      0.00000000	     89.77777216	     -0.97653339	     33.17342756	     24.02947229	     23.38098016	      0.00000000	      0.00000000
      0.05000000	    -13.47832736	     -1.36017566	     -2.29695834	      0.05421529	      1.15837902	     -0.23874601	      0.00000000	      0.50000000	      0.00000000	      0.25000000	     82.77927550	     -0.43737920	      2.62127496	     86.88295560	      1.51639364	     -2.19066123	     -8.03076222	      0.00000000	      0.00000000	     46.22235519	     -7.88490352	     -2.46941859	     65.16838914	      1.13740296	      0.99767339	     -7.84553912	      0.00000000	      0.00000000	    -53.83579445	     -1.03643550	      1.32859496	     89.81222351	     -1.70614011	     43.19476352	     25.75841114	     23.13141087	      0.00000000	      0.00000000	     89.77868161	     -0.99712804	     33.04951732	     24.01818873	     23.53634025	      0.00000000	      0.00000000
      0.05500000	    -13.41962469	     -1.40659988	     -2.29731899	      0.05422223	      1.15849630	     -0.23874346	      0.00000000	      0.50000000	      0.00000000	      0.25000000	     82.69574514	     -0.42791482	      2.57956916	     86.87288351	      1.51621785	     -2.11639761	     -7.93367966	      0.00000000	      0.00000000	     46.16031382	     -7.92663220	     -2.45297403	     65.17375987	      1.13749670	      0.98878288	     -7.89550042	      0.00000000	      0.00000000	    -53.95013758	     -1.00116818	      1.37061207	     89.80863887	     -1.31696696	     40.97634822	     25.69017040	     23.89079027	      0.00000000	      0.00000000	     89.77797848	     -0.65060671	     31.05287256	     24.04598678	     24.05394477	      0.00000000	      0.00000000
      0.06000000	    -13.48166809	     -1.35973050	     -2.28748430	      0.05423575	      1.15836520	     -0.23876916	      0.00000000	      0.50000000	      0.00000000	      0.25000000	     82.77390543	     -0.44887906	      2.62615909	     86.87810378	      1.51630896	     -2.18080969	     -8.00799837	      0.00000000	      0.00000000	     46.22346937	     -7.86580288	     -2.44631783	     65.17358427	      1.13749363	      1.01446680	     -7.86408120	      0.00000000	      0.00000000	    -53.83904138	     -1.02444555	      1.36921455	     89.81146082	     -1.75999852	     43.09708908	     25.79440350	     23.14662471	      0.00000000	      0.00000000	     89.78020157	     -0.95414351	     33.14575991	     24.00345302	     23.50498445	      0.00000000	      0.00000000
      0.06500000	    -13.46988173	     -1.34112152	     -2.30741940	      0.05425174	      1.15837892	     -0.23867247	      0.00000000	      0.50000000	      0.00000000	      0.25000000	     82.77062735	     -0.42559684	      2.64085148	     86.87908144	      1.51632602	     -2.20530624	     -8.03795175	      0.00000000	      0.00000000	     46.20335783	     -7.88638294	     -2.49793485	     65.17340786	      1.13749055	      1.02220603	     -7.81271841	      0.00000000	      0.00000000	    -53.85477150	     -1.06114617	      1.26334837	     89.81308034	     -1.61921769	     43.15532214	     25.62848042	     23.55088270	      0.00000000	      0.00000000	     89.77747430	     -1.04785151	     32.83122300	     24.04084887	     23.90942830	      0.00000000	      0.00000000
